<svg height="496pt" viewBox="-80 0 496 496.8" width="496pt" xmlns="http://www.w3.org/2000/svg"><path d="m72.398438 496-8-80h208l-8 80" fill="#7e4e4d"/><path d="m72.398438 496h169.601562l6.398438-64h-182.398438zm0 0" fill="#8d5655"/><path d="m48.398438 384h240v32h-240zm0 0" fill="#7e4e4d"/><path d="m48.398438 384h200v32h-200zm0 0" fill="#8d5655"/><path d="m328.398438 256h-64c-53.015626 0-96 42.984375-96 96h64c53.015624 0 96-42.984375 96-96zm0 0" fill="#5da351"/><path d="m168.398438 352h-64c-53.015626 0-96-42.984375-96-96h64c53.015624 0 96 42.984375 96 96zm0 0" fill="#5da351"/><path d="m173.976562 320h58.421876c41.785156 0 77.234374-26.734375 90.425781-64h-58.425781c-41.78125 0-77.230469 26.734375-90.421876 64zm0 0" fill="#74c865"/><path d="m72.398438 256h-58.421876c13.191407 37.265625 48.640626 64 90.421876 64h58.425781c-13.191407-37.265625-48.640625-64-90.425781-64zm0 0" fill="#74c865"/><path d="m208.398438 208 8.96875 8.96875c4.503906 4.503906 10.609374 7.03125 16.976562 7.03125h6.054688c13.257812 0 24-10.742188 24-24v-6.054688c0-6.371093-2.527344-12.472656-7.03125-16.96875l-8.96875-8.976562-120-120-8.964844-8.96875c-4.503906-4.503906-10.609375-7.03125-16.976563-7.03125h-6.058593c-13.253907 0-24 10.742188-24 24v6.054688c0 6.371093 2.53125 12.472656 7.035156 16.96875l8.964844 8.976562zm0 0" fill="#e2cb6b"/><path d="m248.398438 88 8.96875-8.96875c4.503906-4.503906 7.03125-10.605469 7.03125-16.976562v-6.054688c0-13.257812-10.742188-24-24-24h-6.054688c-6.367188 0-12.472656 2.527344-16.96875 7.03125l-8.976562 8.96875-120 120-8.964844 8.96875c-4.503906 4.503906-7.035156 10.605469-7.035156 16.976562v6.054688c0 13.257812 10.746093 24 24 24h6.058593c6.367188 0 12.472657-2.527344 16.96875-7.03125l8.972657-8.96875zm0 0" fill="#e2cb6b"/><g fill="#eebc5a"><path d="m152.398438 104-19.4375-32.398438c-2.984376-4.976562-4.5625-10.664062-4.5625-16.464843v-13.449219c0-6.320312 1.875-12.496094 5.378906-17.75l1.125-1.691406c5.929687-8.902344 15.921875-14.246094 26.625-14.246094h13.753906c10.695312 0 20.6875 5.34375 26.621094 14.246094l1.128906 1.691406c3.496094 5.253906 5.367188 11.429688 5.367188 17.75v13.449219c0 5.800781-1.574219 11.488281-4.558594 16.464843l-19.441406 32.398438"/><path d="m184.398438 152 19.441406 32.398438c2.984375 4.976562 4.558594 10.664062 4.558594 16.464843v13.449219c0 6.320312-1.871094 12.496094-5.375 17.75l-1.128907 1.691406c-5.925781 8.902344-15.917969 14.246094-26.621093 14.246094h-13.753907c-10.695312 0-20.6875-5.34375-26.625-14.246094l-1.125-1.691406c-3.496093-5.253906-5.371093-11.429688-5.371093-17.75v-13.449219c0-5.800781 1.578124-11.488281 4.5625-16.464843l19.4375-32.398438"/><path d="m144.398438 144-32.398438 19.441406c-4.976562 2.984375-10.664062 4.558594-16.464844 4.558594h-13.445312c-6.320313 0-12.496094-1.871094-17.753906-5.375l-1.6875-1.128906c-8.90625-5.929688-14.25-15.921875-14.25-26.625v-13.75c0-10.695313 5.34375-20.6875 14.25-26.625l1.6875-1.128906c5.257812-3.496094 11.433593-5.367188 17.753906-5.367188h13.445312c5.800782 0 11.488282 1.574219 16.464844 4.558594l32.398438 19.441406"/><path d="m192.398438 112 32.402343-19.441406c4.976563-2.984375 10.664063-4.558594 16.464844-4.558594h13.445313c6.320312 0 12.496093 1.871094 17.753906 5.375l1.6875 1.128906c8.902344 5.929688 14.246094 15.921875 14.246094 26.625v13.75c0 10.695313-5.34375 20.6875-14.246094 26.625l-1.6875 1.128906c-5.257813 3.496094-11.433594 5.367188-17.753906 5.367188h-13.445313c-5.800781 0-11.488281-1.574219-16.464844-4.558594l-32.402343-19.441406"/></g><path d="m192.398438 128c0 13.253906-10.742188 24-24 24-13.253907 0-24-10.746094-24-24s10.746093-24 24-24c13.257812 0 24 10.746094 24 24zm0 0" fill="#dc6068"/><path d="m168.398438 160c-17.644532 0-32-14.351562-32-32s14.355468-32 32-32c17.648437 0 32 14.351562 32 32s-14.351563 32-32 32zm0-48c-8.824219 0-16 7.175781-16 16s7.175781 16 16 16c8.824218 0 16-7.175781 16-16s-7.175782-16-16-16zm0 0"/><path d="m160.398438 80h16v32h-16zm0 0"/><path d="m120.398438 120h32v16h-32zm0 0"/><path d="m184.398438 120h32v16h-32zm0 0"/><path d="m160.398438 144h16v32h-16zm0 0"/><path d="m191.257812 108.121094-13.722656-8.234375 19.441406-32.398438c2.238282-3.734375 3.421876-8 3.421876-12.351562v-13.449219c0-4.757812-1.390626-9.359375-4.03125-13.3125l-1.128907-1.6875c-4.453125-6.695312-11.925781-10.6875-19.964843-10.6875h-13.753907c-8.039062 0-15.503906 3.992188-19.96875 10.6875l-1.125 1.6875c-2.632812 3.953125-4.027343 8.554688-4.027343 13.3125v13.449219c0 4.351562 1.1875 8.617187 3.425781 12.351562l19.441406 32.398438-13.722656 8.234375-19.4375-32.402344c-3.738281-6.222656-5.707031-13.34375-5.707031-20.582031v-13.449219c0-7.925781 2.320312-15.597656 6.722656-22.183594l1.125-1.6875c7.433594-11.160156 19.875-17.816406 33.28125-17.816406h13.753906c13.40625 0 25.839844 6.65625 33.277344 17.816406l1.128906 1.6875c4.390625 6.585938 6.710938 14.257813 6.710938 22.183594v13.449219c0 7.238281-1.964844 14.359375-5.703126 20.582031zm0 0"/><path d="m175.273438 256h-13.753907c-13.40625 0-25.839843-6.65625-33.28125-17.816406l-1.125-1.6875c-4.394531-6.585938-6.714843-14.257813-6.714843-22.183594v-13.449219c0-7.238281 1.96875-14.359375 5.707031-20.582031l19.4375-32.402344 13.722656 8.234375-19.441406 32.398438c-2.230469 3.734375-3.425781 8-3.425781 12.351562v13.449219c0 4.757812 1.394531 9.359375 4.035156 13.3125l1.125 1.6875c4.457031 6.695312 11.929687 10.6875 19.96875 10.6875h13.753906c8.039062 0 15.503906-3.992188 19.964844-10.6875l1.128906-1.6875c2.632812-3.953125 4.023438-8.554688 4.023438-13.3125v-13.449219c0-4.351562-1.183594-8.617187-3.421876-12.351562l-19.441406-32.398438 13.722656-8.234375 19.4375 32.402344c3.738282 6.222656 5.703126 13.34375 5.703126 20.582031v13.449219c0 7.925781-2.320313 15.597656-6.71875 22.183594l-1.128907 1.6875c-7.429687 11.160156-19.871093 17.816406-33.277343 17.816406zm0 0"/><path d="m95.535156 176h-13.445312c-7.929688 0-15.601563-2.320312-22.1875-6.71875l-1.6875-1.128906c-11.160156-7.433594-17.816406-19.871094-17.816406-33.28125v-13.75c0-13.410156 6.65625-25.839844 17.816406-33.28125l1.6875-1.128906c6.585937-4.390626 14.257812-6.710938 22.1875-6.710938h13.445312c7.242188 0 14.359375 1.96875 20.585938 5.703125l32.398437 19.441406-8.230469 13.71875-32.402343-19.4375c-3.734375-2.234375-8-3.425781-12.351563-3.425781h-13.445312c-4.761719 0-9.363282 1.390625-13.3125 4.03125l-1.6875 1.128906c-6.699219 4.457032-10.691406 11.929688-10.691406 19.96875v13.75c0 8.042969 3.992187 15.503906 10.691406 19.96875l1.6875 1.128906c3.949218 2.632813 8.550781 4.023438 13.3125 4.023438h13.445312c4.351563 0 8.617188-1.183594 12.351563-3.425781l32.402343-19.4375 8.230469 13.71875-32.398437 19.441406c-6.226563 3.734375-13.34375 5.703125-20.585938 5.703125zm0 0"/><path d="m254.710938 176h-13.445313c-7.242187 0-14.363281-1.96875-20.585937-5.703125l-32.398438-19.441406 8.230469-13.71875 32.398437 19.4375c3.738282 2.234375 8 3.425781 12.355469 3.425781h13.445313c4.761718 0 9.359374-1.390625 13.3125-4.03125l1.6875-1.128906c6.695312-4.457032 10.6875-11.929688 10.6875-19.96875v-13.75c0-8.042969-3.992188-15.503906-10.6875-19.96875l-1.6875-1.128906c-3.953126-2.632813-8.550782-4.023438-13.3125-4.023438h-13.445313c-4.355469 0-8.617187 1.183594-12.355469 3.425781l-32.398437 19.4375-8.230469-13.71875 32.398438-19.441406c6.222656-3.734375 13.34375-5.703125 20.585937-5.703125h13.445313c7.929687 0 15.601562 2.320312 22.183593 6.71875l1.691407 1.128906c11.15625 7.433594 17.8125 19.871094 17.8125 33.28125v13.75c0 13.410156-6.65625 25.839844-17.8125 33.28125l-1.691407 1.128906c-6.582031 4.390626-14.253906 6.710938-22.183593 6.710938zm0 0"/><path d="m82.742188 93.65625-8.964844-8.96875c-5.960938-5.953125-9.378906-14.199219-9.378906-22.625v-6.0625c0-17.648438 14.355468-32 32-32h6.066406c8.421875 0 16.671875 3.414062 22.625 9.375l8.964844 8.96875-11.3125 11.3125-8.964844-8.96875c-2.976563-2.976562-7.105469-4.6875-11.3125-4.6875h-6.066406c-8.824219 0-16 7.175781-16 16v6.0625c0 4.210938 1.714843 8.335938 4.691406 11.3125l8.964844 8.96875zm0 0"/><path d="m254.054688 93.65625-11.3125-11.3125 8.96875-8.96875c2.976562-2.976562 4.6875-7.101562 4.6875-11.3125v-6.0625c0-8.824219-7.175782-16-16-16h-6.0625c-4.207032 0-8.335938 1.710938-11.3125 4.6875l-8.96875 8.96875-11.3125-11.3125 8.96875-8.96875c5.953124-5.960938 14.199218-9.375 22.625-9.375h6.0625c17.648437 0 32 14.351562 32 32v6.0625c0 8.425781-3.414063 16.671875-9.375 22.625zm0 0"/><path d="m102.464844 232h-6.066406c-17.644532 0-32-14.351562-32-32v-6.0625c0-8.425781 3.417968-16.671875 9.378906-22.625l8.964844-8.96875 11.3125 11.3125-8.964844 8.96875c-2.976563 2.976562-4.691406 7.101562-4.691406 11.3125v6.0625c0 8.824219 7.175781 16 16 16h6.066406c4.207031 0 8.335937-1.710938 11.3125-4.6875l8.964844-8.96875 11.3125 11.3125-8.964844 8.96875c-5.953125 5.960938-14.203125 9.375-22.625 9.375zm0 0"/><path d="m240.398438 232h-6.0625c-8.425782 0-16.671876-3.414062-22.625-9.375l-8.96875-8.96875 11.3125-11.3125 8.96875 8.96875c2.976562 2.976562 7.105468 4.6875 11.3125 4.6875h6.0625c8.824218 0 16-7.175781 16-16v-6.0625c0-4.210938-1.710938-8.335938-4.6875-11.3125l-8.96875-8.96875 11.3125-11.3125 8.96875 8.96875c5.960937 5.953125 9.375 14.199219 9.375 22.625v6.0625c0 17.648438-14.351563 32-32 32zm0 0"/><path d="m232.398438 360h-64c-4.421876 0-8-3.574219-8-8 0-57.34375 46.65625-104 104-104h64c4.425781 0 8 3.574219 8 8 0 57.34375-46.65625 104-104 104zm-55.636719-16h55.636719c45.832031 0 83.585937-35.207031 87.640624-80h-55.640624c-45.832032 0-83.582032 35.207031-87.636719 80zm0 0"/><path d="m168.398438 360h-64c-57.34375 0-104-46.65625-104-104 0-4.425781 3.578124-8 8-8h64c57.34375 0 104 46.65625 104 104 0 4.425781-3.574219 8-8 8zm-151.636719-96c4.054687 44.792969 41.804687 80 87.636719 80h55.640624c-4.054687-44.792969-41.808593-80-87.640624-80zm0 0"/><path d="m160.398438 248h16v136h-16zm0 0"/><path d="m288.398438 424h-240c-4.421876 0-8-3.574219-8-8v-32c0-4.425781 3.578124-8 8-8h240c4.425781 0 8 3.574219 8 8v32c0 4.425781-3.574219 8-8 8zm-232-16h224v-16h-224zm0 0"/><path d="m272.359375 496.800781-15.917969-1.59375 7.117188-71.199219h-190.320313l7.121094 71.199219-15.917969 1.59375-8-80c-.226562-2.25.511719-4.496093 2.03125-6.167969 1.511719-1.679687 3.671875-2.632812 5.925782-2.632812h208c2.257812 0 4.417968.953125 5.929687 2.632812 1.511719 1.671876 2.257813 3.910157 2.03125 6.167969zm0 0"/></svg>