<svg height="496pt" viewBox="0 0 496 496.0067" width="496pt" xmlns="http://www.w3.org/2000/svg"><path d="m203.980469 200.007812c0-8-56-80-56-80l16-112 64 168" fill="#575c61"/><path d="m163.980469 120.007812s36.648437 47.125 50.640625 69.359376l13.359375-13.359376-52.359375-137.457031zm0 0" fill="#5b6673"/><path d="m283.980469 200.007812c0-8 56-80 56-80l-16-112-64 168" fill="#575c61"/><path d="m273.34375 189.367188c13.992188-22.234376 50.636719-69.359376 50.636719-69.359376l-11.636719-81.457031-52.363281 137.457031zm0 0" fill="#5b6673"/><path d="m291.980469 224.007812c0 26.507813-21.488281 48-48 48-26.507813 0-48-21.492187-48-48 0-26.511718 21.492187-48 48-48 26.511719 0 48 21.488282 48 48zm0 0" fill="#bab8b9"/><path d="m259.980469 224.007812c0 8.835938-7.160157 16-16 16-8.835938 0-16-7.164062-16-16 0-8.835937 7.164062-16 16-16 8.839843 0 16 7.164063 16 16zm0 0" fill="#d9d7d8"/><path d="m203.980469 240.007812-.734375.734376c-40.503906 40.503906-63.265625 95.449218-63.265625 152.738281v62.527343h48v-69.730468c0-42.429688 16.859375-83.125 46.867187-113.132813l1.132813-1.136719" fill="#ca5057"/><path d="m218.847656 273.144531 1.132813-1.136719-23.820313-23.824218c-36.058594 39.671875-56.179687 91.4375-56.179687 145.296875v62.527343h32v-69.730468c0-42.429688 16.859375-83.125 46.867187-113.132813zm0 0" fill="#dc6068"/><path d="m283.980469 240.007812.738281.734376c40.503906 40.503906 63.261719 95.449218 63.261719 152.738281v62.527343h-48v-69.730468c0-42.429688-16.855469-83.125-46.863281-113.132813l-1.136719-1.136719" fill="#ca5057"/><path d="m275.804688 248.183594-23.824219 23.824218 1.136719 1.136719c30.007812 30.007813 46.863281 70.703125 46.863281 113.132813v69.730468h32v-62.527343c0-53.859375-20.117188-105.625-56.175781-145.296875zm0 0" fill="#dc6068"/><path d="m299.980469 424.007812h48v32h-48zm0 0" fill="#599072"/><path d="m139.980469 424.007812h48v32h-48zm0 0" fill="#599072"/><path d="m123.980469 456.007812h80v32h-80zm0 0" fill="#ca5057"/><path d="m363.980469 488.007812h-80v-32h80zm0 0" fill="#ca5057"/><path d="m123.980469 456.007812h64v32h-64zm0 0" fill="#dc6068"/><path d="m347.980469 488.007812h-64v-32h64zm0 0" fill="#dc6068"/><path d="m243.980469 248.007812c-13.230469 0-24-10.769531-24-24 0-13.234374 10.769531-24 24-24 13.234375 0 24 10.765626 24 24 0 13.230469-10.765625 24-24 24zm0-32c-4.40625 0-8 3.589844-8 8 0 4.40625 3.59375 8 8 8 4.410156 0 8-3.59375 8-8 0-4.410156-3.589844-8-8-8zm0 0"/><path d="m243.980469 280.007812c-30.878907 0-56-25.121093-56-56 0-30.882812 25.121093-56 56-56 30.882812 0 56 25.117188 56 56 0 30.878907-25.117188 56-56 56zm0-96c-22.054688 0-40 17.941407-40 40 0 22.054688 17.945312 40 40 40 22.058593 0 40-17.945312 40-40 0-22.058593-17.941407-40-40-40zm0 0"/><path d="m196.132812 201.285156c-2.078124-6.644531-29.328124-44.046875-54.46875-76.367187-1.335937-1.710938-1.914062-3.894531-1.601562-6.039063l16-112c.511719-3.609375 3.40625-6.417968 7.03125-6.816406 3.609375-.464844 7.066406 1.6875 8.359375 5.105469l64 168-14.949219 5.695312-52.976562-139.089843-11.144532 78c55.597657 71.671874 55.597657 79.328124 55.597657 82.234374h-16c0 .78125.144531 1.253907.152343 1.277344zm0 0"/><path d="m291.832031 201.285156c.007813-.023437.148438-.496094.148438-1.277344h-16c0-2.90625 0-10.5625 55.601562-82.226562l-11.144531-78-52.984375 139.082031-14.949219-5.695312 64-168c1.292969-3.410157 4.679688-5.5625 8.359375-5.105469 3.621094.398438 6.511719 3.207031 7.03125 6.816406l16 112c.3125 2.152344-.273437 4.335938-1.601562 6.039063-25.132813 32.320312-52.382813 69.730469-54.460938 76.367187zm0 0"/><path d="m195.980469 456.007812h-16v-69.730468c0-44.871094 17.480469-87.0625 49.210937-118.789063l1.136719-1.136719 11.308594 11.3125-1.132813 1.132813c-28.707031 28.714844-44.523437 66.882813-44.523437 107.480469zm0 0"/><path d="m147.980469 456.007812h-16v-62.527343c0-59.832031 23.304687-116.082031 65.609375-158.394531l.738281-.734376 11.308594 11.3125-.734375.734376c-39.28125 39.28125-60.921875 91.519531-60.921875 147.082031zm0 0"/><path d="m203.980469 496.007812h-80c-4.414063 0-8-3.585937-8-8v-32c0-4.417968 3.585937-8 8-8h80c4.417969 0 8 3.582032 8 8v32c0 4.414063-3.582031 8-8 8zm-72-16h64v-16h-64zm0 0"/><path d="m139.980469 416.007812h48v16h-48zm0 0"/><path d="m307.980469 456.007812h-16v-69.730468c0-40.597656-15.8125-78.765625-44.519531-107.480469l-1.132813-1.132813 11.308594-11.3125 1.136719 1.136719c31.730468 31.726563 49.207031 73.917969 49.207031 118.789063zm0 0"/><path d="m355.980469 456.007812h-16v-62.527343c0-55.5625-21.636719-107.792969-60.917969-147.082031l-.734375-.734376 11.308594-11.3125.738281.734376c42.304688 42.304687 65.605469 98.5625 65.605469 158.394531zm0 0"/><path d="m363.980469 496.007812h-80c-4.414063 0-8-3.585937-8-8v-32c0-4.417968 3.585937-8 8-8h80c4.417969 0 8 3.582032 8 8v32c0 4.414063-3.582031 8-8 8zm-72-16h64v-16h-64zm0 0"/><path d="m299.980469 416.007812h48v16h-48zm0 0"/><path d="m451.980469 496.007812h-16v-136c0-2.121093.839843-4.160156 2.347656-5.65625l40-40 11.308594 11.3125-37.65625 37.65625zm0 0"/><path d="m436.109375 361.4375-16-88c-.367187-2.039062.066406-4.144531 1.21875-5.863281l48-72 13.308594 8.871093-46.207031 69.3125 15.425781 84.824219zm0 0"/><path d="m432.40625 327.167969-48-24c-2.089844-1.050781-3.617188-2.953125-4.183594-5.21875l-8-32 15.519532-3.878907 7.105468 28.433594 44.710938 22.351563zm0 0"/><path d="m412.8125 171.585938 14.3125-7.152344 31.996094 63.996094-14.308594 7.152343zm0 0"/><path d="m350.679688 213.996094 10.628906-11.957032 72 64.003907-10.628906 11.957031zm0 0"/><path d="m352.390625 304.847656 32-16 7.152344 14.3125-31.996094 16zm0 0"/><path d="m431.984375 289.066406 55.996094-31.996094 7.9375 13.890626-55.996094 31.996093zm0 0"/><path d="m59.980469 496.007812h-16v-172.6875l-37.652344-37.65625 11.308594-11.3125 40 40c1.503906 1.496094 2.34375 3.535157 2.34375 5.65625zm0 0"/><path d="m59.855469 321.4375-15.746094-2.855469 15.425781-84.824219-46.207031-69.3125 13.308594-8.871093 48 72c1.152343 1.726562 1.585937 3.832031 1.21875 5.863281zm0 0"/><path d="m63.558594 287.167969-7.160156-14.3125 44.710937-22.351563 7.105469-28.433594 15.519531 3.878907-8 32c-.566406 2.265625-2.097656 4.167969-4.183594 5.21875zm0 0"/><path d="m36.824219 188.425781 31.996093-63.996093 14.3125 7.15625-32 63.996093zm0 0"/><path d="m62.667969 226.035156 72.003906-64.007812 10.628906 11.957031-72 64.007813zm0 0"/><path d="m104.394531 263.164062 7.15625-14.3125 32 16-7.15625 14.308594zm0 0"/><path d="m.00390625 230.945312 7.93749975-13.890624 55.996094 31.996093-7.9375 13.890625zm0 0"/></svg>