<svg height="496pt" viewBox="-3 0 496 496" width="496pt" xmlns="http://www.w3.org/2000/svg"><g fill="#7e4e4d"><path d="m165.199219 72h160v32h-160zm0 0"/><path d="m165.199219 184h160v32h-160zm0 0"/><path d="m165.199219 296h160v32h-160zm0 0"/><path d="m165.199219 408h160v32h-160zm0 0"/></g><path d="m325.199219 8h32v480h-32zm0 0" fill="#8d5655"/><path d="m133.199219 8h32v480h-32zm0 0" fill="#8d5655"/><path d="m357.199219 496h-32c-4.421875 0-8-3.574219-8-8v-480c0-4.414062 3.578125-8 8-8h32c4.425781 0 8 3.585938 8 8v480c0 4.425781-3.574219 8-8 8zm-24-16h16v-464h-16zm0 0"/><path d="m165.199219 496h-32c-4.421875 0-8-3.574219-8-8v-480c0-4.414062 3.578125-8 8-8h32c4.425781 0 8 3.585938 8 8v480c0 4.425781-3.574219 8-8 8zm-24-16h16v-464h-16zm0 0"/><path d="m325.199219 448h-160c-4.421875 0-8-3.574219-8-8v-32c0-4.425781 3.578125-8 8-8h160c4.425781 0 8 3.574219 8 8v32c0 4.425781-3.574219 8-8 8zm-152-16h144v-16h-144zm0 0"/><path d="m325.199219 336h-160c-4.421875 0-8-3.574219-8-8v-32c0-4.425781 3.578125-8 8-8h160c4.425781 0 8 3.574219 8 8v32c0 4.425781-3.574219 8-8 8zm-152-16h144v-16h-144zm0 0"/><path d="m325.199219 224h-160c-4.421875 0-8-3.585938-8-8v-32c0-4.414062 3.578125-8 8-8h160c4.425781 0 8 3.585938 8 8v32c0 4.414062-3.574219 8-8 8zm-152-16h144v-16h-144zm0 0"/><path d="m325.199219 112h-160c-4.421875 0-8-3.585938-8-8v-32c0-4.414062 3.578125-8 8-8h160c4.425781 0 8 3.585938 8 8v32c0 4.414062-3.574219 8-8 8zm-152-16h144v-16h-144zm0 0"/><path d="m437.199219 496h-16v-200c0-2.335938 1.023437-4.550781 2.800781-6.070312l56-48 10.40625 12.148437-53.207031 45.601563zm0 0"/><path d="m446.953125 277-29.59375-37h-36.160156v-16h40c2.433593 0 4.730469 1.105469 6.25 3l32 40zm0 0"/><path d="m428.785156 234.527344-15.167968-5.0625 16-48c.664062-2.007813 2.109374-3.671875 4.007812-4.625l48-24 7.160156 14.3125-45.042968 22.511718zm0 0"/><path d="m398.964844 148.996094 12.492187-9.992188 32 40-12.492187 9.996094zm0 0"/><path d="m378.664062 287.574219 5.058594-15.171875 48.003906 16-5.058593 15.171875zm0 0"/><path d="m425.199219 345.054688 55.996093-31.996094 7.9375 13.890625-55.996093 32zm0 0"/><path d="m377.605469 391.160156 7.15625-14.308594 47.996093 24-7.152343 14.308594zm0 0"/><path d="m69.199219 496h-16v-196.320312l-53.199219-45.609376 10.40625-12.148437 56 48c1.769531 1.527344 2.792969 3.742187 2.792969 6.078125zm0 0"/><path d="m43.449219 277-12.496094-10 32-40c1.519531-1.894531 3.816406-3 6.246094-3h40v16h-36.160157zm0 0"/><path d="m58.667969 288.421875 48-16.011719 5.058593 15.167969-47.996093 16.015625zm0 0"/><path d="m1.21875 326.9375 7.9375-13.890625 55.992188 31.996094-7.9375 13.890625zm0 0"/><path d="m57.617188 400.835938 47.996093-24 7.15625 14.308593-48 24zm0 0"/></svg>