<svg height="496pt" viewBox="-1 0 495 496" width="496pt" xmlns="http://www.w3.org/2000/svg"><path d="m316.933594 128c0 39.765625-32.238282 72-72 72-39.765625 0-72-32.234375-72-72s32.234375-72 72-72c39.761718 0 72 32.234375 72 72zm0 0" fill="#df9363"/><path d="m292.933594 128c0-39.167969-26.863282-70.921875-60-70.921875-33.140625 0-60 31.753906-60 70.921875s26.859375 70.921875 60 70.921875c33.136718 0 60-31.753906 60-70.921875zm0 0" fill="#eea273"/><path d="m292.933594 288 96-64 96 64" fill="#74c865"/><path d="m422.269531 246.222656-33.335937-22.222656-48.570313 31.433594.570313.566406 32 32 48-40zm0 0" fill="#5da351"/><path d="m4.933594 360 168-112 136 112" fill="#74c865"/><path d="m196.933594 336 40-32 1.804687-1.808594-65.804687-54.191406-72 48 32 40 40-32zm0 0" fill="#5da351"/><g fill="#599072"><path d="m116.933594 440c13.253906 0 24-10.742188 24-24s-10.746094-24-24-24c-2.882813 0-5.601563.59375-8.152344 1.519531.023438-.519531.152344-1 .152344-1.519531 0-17.671875-14.328125-32-32-32s-32 14.328125-32 32c0 .488281.117187.945312.140625 1.425781-9.375 3.261719-16.140625 12.085938-16.140625 22.574219 0 13.257812 10.742187 24 24 24zm0 0"/><path d="m460.933594 376c13.253906 0 24-10.742188 24-24s-10.746094-24-24-24c-2.882813 0-5.601563.59375-8.152344 1.519531.023438-.519531.152344-1 .152344-1.519531 0-17.671875-14.328125-32-32-32s-32 14.328125-32 32c0 .488281.117187.945312.140625 1.425781-9.375 3.261719-16.140625 12.085938-16.140625 22.574219 0 13.257812 10.742187 24 24 24zm0 0"/><path d="m236.933594 440c8.839844 0 16-7.160156 16-16s-7.160156-16-16-16c-.523438 0-1.007813.105469-1.523438.152344.929688-2.550782 1.523438-5.273438 1.523438-8.152344 0-13.257812-10.746094-24-24-24-13.257813 0-24 10.742188-24 24 0 2.878906.589844 5.601562 1.519531 8.152344-.511719-.046875-1-.152344-1.519531-.152344-8.839844 0-16 7.160156-16 16s7.160156 16 16 16zm0 0"/></g><path d="m124.933594 416c0-10.433594-6.699219-19.214844-15.992188-22.527344-.058594.015625-.113281.023438-.160156.046875 0-.03125.007812-.0625.007812-.085937-2.472656-.875-5.089843-1.433594-7.855468-1.433594-2.882813 0-5.601563.59375-8.152344 1.519531.023438-.519531.152344-1 .152344-1.519531 0-14.894531-10.226563-27.304688-24-30.871094-13.777344 3.566406-24 15.976563-24 30.871094 0 .488281.117187.945312.140625 1.425781-9.375 3.261719-16.140625 12.085938-16.140625 22.574219 0 13.257812 10.742187 24 24 24h48c13.253906 0 24-10.742188 24-24zm0 0" fill="#70b48f"/><path d="m468.933594 352c0-10.433594-6.699219-19.214844-15.992188-22.527344-.058594.015625-.113281.023438-.160156.046875 0-.03125.007812-.0625.007812-.085937-2.472656-.875-5.089843-1.433594-7.855468-1.433594-2.882813 0-5.601563.59375-8.152344 1.519531.023438-.519531.152344-1 .152344-1.519531 0-14.894531-10.226563-27.304688-24-30.871094-13.777344 3.566406-24 15.976563-24 30.871094 0 .488281.117187.945312.140625 1.425781-9.375 3.261719-16.140625 12.085938-16.140625 22.574219 0 13.257812 10.742187 24 24 24h48c13.253906 0 24-10.742188 24-24zm0 0" fill="#70b48f"/><path d="m236.933594 424c0-8.839844-7.160156-16-16-16-.523438 0-1.007813.105469-1.523438.152344.929688-2.550782 1.523438-5.273438 1.523438-8.152344 0-10.433594-6.699219-19.222656-16-22.527344-9.304688 3.304688-16 12.09375-16 22.527344 0 2.878906.589844 5.601562 1.519531 8.152344-.511719-.046875-1-.152344-1.519531-.152344-8.839844 0-16 7.160156-16 16s7.160156 16 16 16h32c8.839844 0 16-7.160156 16-16zm0 0" fill="#70b48f"/><path d="m359.964844 406.273438-187.433594-148.394532-163.160156 108.777344-8.871094-13.3125 168-112c2.886719-1.917969 6.679688-1.769531 9.398438.382812l192 152zm0 0"/><path d="m257.277344 318.710938-8.699219-13.429688 136-88c2.675781-1.738281 6.128906-1.707031 8.785156.054688l96 64-8.871093 13.3125-91.632813-61.089844zm0 0"/><path d="m116.933594 448h-64c-17.648438 0-32-14.351562-32-32 0-11.566406 6.308594-22.089844 16.167968-27.703125 1.871094-20.328125 19.023438-36.296875 39.832032-36.296875 19.320312 0 35.488281 13.769531 39.199218 32.007812 17.863282-.695312 32.800782 14.082032 32.800782 31.992188 0 17.648438-14.355469 32-32 32zm-40-80c-13.234375 0-24 10.769531-24 24 .054687.113281.109375.566406.132812 1.039062.167969 3.546876-2.007812 6.777344-5.359375 7.945313-6.4375 2.238281-10.773437 8.28125-10.773437 15.015625 0 8.824219 7.175781 16 16 16h64c8.824218 0 16-7.175781 16-16s-7.175782-16-16-16c-1.730469 0-3.503906.335938-5.425782 1.03125-2.519531.921875-5.320312.503906-7.472656-1.078125-2.152344-1.585937-3.367187-4.136719-3.246094-6.808594.007813-.257812.109376-1.183593.144532-1.441406 0-12.933594-10.769532-23.703125-24-23.703125zm0 0"/><path d="m76.933594 440h16v56h-16zm0 0"/><path d="m460.933594 384h-64c-17.648438 0-32-14.351562-32-32 0-11.566406 6.308594-22.089844 16.167968-27.703125 1.871094-20.328125 19.023438-36.296875 39.832032-36.296875 19.320312 0 35.488281 13.769531 39.199218 32.007812 17.839844-.695312 32.800782 14.082032 32.800782 31.992188 0 17.648438-14.355469 32-32 32zm-40-80c-13.234375 0-24 10.769531-24 24 .054687.113281.109375.566406.132812 1.039062.167969 3.546876-2.007812 6.777344-5.359375 7.945313-6.4375 2.238281-10.773437 8.28125-10.773437 15.015625 0 8.824219 7.175781 16 16 16h64c8.824218 0 16-7.175781 16-16s-7.175782-16-16-16c-1.730469 0-3.503906.335938-5.425782 1.03125-2.519531.921875-5.320312.503906-7.472656-1.078125-2.152344-1.585937-3.367187-4.136719-3.246094-6.808594.007813-.257812.109376-1.183593.144532-1.441406 0-12.933594-10.769532-23.703125-24-23.703125zm0 0"/><path d="m420.933594 376h16v120h-16zm0 0"/><path d="m236.933594 448h-48c-13.234375 0-24-10.769531-24-24 0-10.441406 6.703125-19.34375 16.03125-22.640625-.023438-.457031-.03125-.902344-.03125-1.359375 0-17.648438 14.351562-32 32-32 17.644531 0 32 14.351562 32 32 0 .457031-.007813.902344-.035156 1.359375 9.328124 3.296875 16.035156 12.199219 16.035156 22.640625 0 13.230469-10.769532 24-24 24zm-48.121094-31.984375c-4.304688 0-7.878906 3.585937-7.878906 7.984375 0 4.40625 3.589844 8 8 8h48c4.40625 0 8-3.59375 8-8s-3.59375-8-8-8c-2.730469.246094-5.785156-.839844-7.457032-3.015625-1.671874-2.167969-2.511718-4.984375-1.578124-7.558594.699218-1.921875 1.035156-3.699219 1.035156-5.425781 0-8.824219-7.175782-16-16-16-8.824219 0-16 7.175781-16 16 0 1.726562.335937 3.503906 1.03125 5.425781.933594 2.574219.488281 5.445313-1.191406 7.613281-1.664063 2.167969-4.304688 3.367188-7.074219 3.074219-.109375-.007812-.75-.089843-.863281-.105469-.007813.007813-.015626.007813-.023438.007813zm0 0"/><path d="m204.933594 440h16v56h-16zm0 0"/><path d="m388.933594 400h40v16h-40zm0 0"/><path d="m428.933594 432h40v16h-40zm0 0"/><path d="m44.933594 464h40v16h-40zm0 0"/><path d="m212.933594 464h24v16h-24zm0 0"/><path d="m132.933594 344c-2.34375 0-4.671875-1.023438-6.25-3l-32-40 12.496094-9.992188 27 33.753907 33.753906-27c1.6875-1.355469 3.878906-1.96875 6-1.691407 2.152344.273438 4.09375 1.410157 5.390625 3.136719l19.046875 25.402344 33.554687-26.839844 9.988281 12.496094-40 32c-1.6875 1.351563-3.855468 1.972656-6 1.6875-2.148437-.273437-4.09375-1.410156-5.390624-3.136719l-19.046876-25.402344-33.550781 26.84375c-1.472656 1.167969-3.234375 1.742188-4.992187 1.742188zm0 0"/><path d="m372.933594 296c-2.058594 0-4.105469-.792969-5.65625-2.34375l-32-32 11.3125-11.3125 26.832031 26.832031 42.382813-35.320312 10.238281 12.289062-48 40c-1.480469 1.238281-3.296875 1.855469-5.109375 1.855469zm0 0"/><path d="m244.933594 208c-44.113282 0-80-35.886719-80-80s35.886718-80 80-80c44.109375 0 80 35.886719 80 80s-35.890625 80-80 80zm0-144c-35.289063 0-64 28.710938-64 64s28.710937 64 64 64c35.285156 0 64-28.710938 64-64s-28.714844-64-64-64zm0 0"/><path d="m244.933594 176v-16c17.644531 0 32-14.351562 32-32h16c0 26.472656-21.53125 48-48 48zm0 0"/><path d="m236.933594 0h16v32h-16zm0 0"/><path d="m236.933594 224h16v32h-16zm0 0"/><path d="m143.277344 37.660156 11.3125-11.3125 24 24-11.3125 11.3125zm0 0"/><path d="m311.273438 205.660156 11.3125-11.3125 24.003906 24-11.316406 11.3125zm0 0"/><path d="m116.933594 120h32v16h-32zm0 0"/><path d="m340.933594 120h32v16h-32zm0 0"/><path d="m143.273438 218.339844 24.003906-24 11.3125 11.3125-24 24.003906zm0 0"/><path d="m311.273438 50.34375 24.003906-24.003906 11.3125 11.316406-24 24zm0 0"/></svg>