<svg height="496pt" viewBox="0 0 496 496" width="496pt" xmlns="http://www.w3.org/2000/svg"><path d="m160 224h176l-16 120h-144zm0 0" fill="#df9363"/><path d="m160 224 16 120h120l16-120zm0 0" fill="#eea273"/><path d="m144 192h208v32h-208zm0 0" fill="#bc8f6f"/><path d="m144 192h168v32h-168zm0 0" fill="#cb9e78"/><path d="m8 312h64v176h-64zm0 0" fill="#699ce6"/><path d="m72 312h48v160h-48zm0 0" fill="#5789d6"/><path d="m120 456h64l48 32 256-56v-8c0-17.671875-14.328125-32-32-32h-192v-2.078125c0-3.816406-1.367188-7.515625-3.847656-10.417969l-44.152344-51.503906h-96" fill="#dcb29c"/><path d="m232 488 254.945312-55.769531c-3.488281-13.894531-15.96875-24.230469-30.945312-24.230469h-192v-2.078125c0-3.816406-1.367188-7.515625-3.855469-10.417969l-44.144531-51.503906h-96v112h64zm0 0" fill="#f3c6b0"/><path d="m360 344c0 8.835938-7.164062 16-16 16s-16-7.164062-16-16 7.164062-16 16-16 16 7.164062 16 16zm0 0" fill="#eebc5a"/><path d="m120 264c0 8.835938-7.164062 16-16 16s-16-7.164062-16-16 7.164062-16 16-16 16 7.164062 16 16zm0 0" fill="#eebc5a"/><path d="m440 288c0 17.671875-14.328125 32-32 32s-32-14.328125-32-32 14.328125-32 32-32 32 14.328125 32 32zm0 0" fill="#599072"/><path d="m72 208c0 17.671875-14.328125 32-32 32s-32-14.328125-32-32 14.328125-32 32-32 32 14.328125 32 32zm0 0" fill="#599072"/><path d="m272 32c0 13.253906-10.746094 24-24 24s-24-10.746094-24-24 10.746094-24 24-24 24 10.746094 24 24zm0 0" fill="#ca5057"/><path d="m312 128c-8.839844 0-16 7.160156-16 16v48h32v-48c0-8.839844-7.160156-16-16-16zm0 0" fill="#599072"/><path d="m304 130.214844c-4.761719 2.769531-8 7.875-8 13.785156v48h16v-48c0-5.902344-3.238281-11.007812-8-13.785156zm0 0" fill="#70b48f"/><path d="m184 128c-8.839844 0-16 7.160156-16 16v48h32v-48c0-8.839844-7.160156-16-16-16zm0 0" fill="#599072"/><path d="m176 130.214844c-4.761719 2.769531-8 7.875-8 13.785156v48h16v-48c0-5.902344-3.238281-11.007812-8-13.785156zm0 0" fill="#70b48f"/><path d="m248 144c-8.839844 0-16 7.160156-16 16v32h32v-32c0-8.839844-7.160156-16-16-16zm0 0" fill="#599072"/><path d="m240 146.214844c-4.761719 2.769531-8 7.875-8 13.785156v32h16v-32c0-5.902344-3.238281-11.007812-8-13.785156zm0 0" fill="#70b48f"/><path d="m296 80h-16c-17.671875 0-32 14.328125-32 32h16c17.671875 0 32-14.328125 32-32zm0 0" fill="#5da351"/><path d="m248 112h-16c-17.671875 0-32-14.328125-32-32h16c17.671875 0 32 14.328125 32 32zm0 0" fill="#5da351"/><path d="m72 496h-64c-4.414062 0-8-3.574219-8-8v-176c0-4.425781 3.585938-8 8-8h64c4.414062 0 8 3.574219 8 8v176c0 4.425781-3.585938 8-8 8zm-56-16h48v-160h-48zm0 0"/><path d="m120 480h-48c-4.414062 0-8-3.574219-8-8v-160c0-4.425781 3.585938-8 8-8h48c4.414062 0 8 3.574219 8 8v160c0 4.425781-3.585938 8-8 8zm-40-16h32v-144h-32zm0 0"/><path d="m248 424h-9.367188c-6.410156 0-12.441406-2.496094-16.976562-7.03125l-35.3125-35.3125 11.3125-11.3125 35.3125 35.3125c1.511719 1.511719 3.527344 2.34375 5.664062 2.34375h9.367188c4.40625 0 8-3.585938 8-8v-10.078125c0-1.90625-.679688-3.761719-1.929688-5.210937l-41.75-48.710938h-92.320312v-16h96c2.335938 0 4.550781 1.023438 6.070312 2.800781l44.152344 51.503907c3.730469 4.34375 5.777344 9.886718 5.777344 15.617187v10.078125c0 13.230469-10.769531 24-24 24zm0 0"/><path d="m232 496c-1.566406 0-3.113281-.464844-4.441406-1.34375l-45.984375-30.65625h-61.574219v-16h64c1.574219 0 3.128906.472656 4.441406 1.34375l45.167969 30.121094 246.390625-53.90625v-1.558594c0-13.230469-10.769531-24-24-24h-192v-16h192c22.054688 0 40 17.945312 40 40v8c0 3.761719-2.617188 7.015625-6.289062 7.816406l-256 56c-.566407.121094-1.144532.183594-1.710938.183594zm0 0"/><path d="m344 368c-13.230469 0-24-10.769531-24-24s10.769531-24 24-24 24 10.769531 24 24-10.769531 24-24 24zm0-32c-4.40625 0-8 3.585938-8 8s3.59375 8 8 8 8-3.585938 8-8-3.59375-8-8-8zm0 0"/><path d="m408 328c-22.054688 0-40-17.945312-40-40s17.945312-40 40-40 40 17.945312 40 40-17.945312 40-40 40zm0-64c-13.230469 0-24 10.769531-24 24s10.769531 24 24 24 24-10.769531 24-24-10.769531-24-24-24zm0 0"/><path d="m104 288c-13.230469 0-24-10.769531-24-24s10.769531-24 24-24 24 10.769531 24 24-10.769531 24-24 24zm0-32c-4.40625 0-8 3.585938-8 8s3.59375 8 8 8 8-3.585938 8-8-3.59375-8-8-8zm0 0"/><path d="m40 248c-22.054688 0-40-17.945312-40-40s17.945312-40 40-40 40 17.945312 40 40-17.945312 40-40 40zm0-64c-13.230469 0-24 10.769531-24 24s10.769531 24 24 24 24-10.769531 24-24-10.769531-24-24-24zm0 0"/><path d="m352 232h-208c-4.414062 0-8-3.585938-8-8v-32c0-4.414062 3.585938-8 8-8h208c4.414062 0 8 3.585938 8 8v32c0 4.414062-3.585938 8-8 8zm-200-16h192v-16h-192zm0 0"/><path d="m152.109375 225.21875 15.816406-2.433594 16.003907 104.003906-15.816407 2.433594zm0 0"/><path d="m320 352h-88v-16h81l15.070312-113.054688 15.859376 2.117188-16 120c-.53125 3.96875-3.921876 6.9375-7.929688 6.9375zm0 0"/><path d="m200 200h-32c-4.414062 0-8-3.585938-8-8v-48c0-13.230469 10.769531-24 24-24s24 10.769531 24 24v48c0 4.414062-3.585938 8-8 8zm-24-16h16v-40c0-4.40625-3.59375-8-8-8s-8 3.59375-8 8zm0 0"/><path d="m264 200h-32c-4.414062 0-8-3.585938-8-8v-32c0-13.230469 10.769531-24 24-24s24 10.769531 24 24v32c0 4.414062-3.585938 8-8 8zm-24-16h16v-24c0-4.40625-3.59375-8-8-8s-8 3.59375-8 8zm0 0"/><path d="m328 200h-32c-4.414062 0-8-3.585938-8-8v-48c0-13.230469 10.769531-24 24-24s24 10.769531 24 24v48c0 4.414062-3.585938 8-8 8zm-24-16h16v-40c0-4.40625-3.59375-8-8-8s-8 3.59375-8 8zm0 0"/><path d="m240 56h16v88h-16zm0 0"/><path d="m248 64c-17.648438 0-32-14.351562-32-32s14.351562-32 32-32 32 14.351562 32 32-14.351562 32-32 32zm0-48c-8.824219 0-16 7.175781-16 16s7.175781 16 16 16 16-7.175781 16-16-7.175781-16-16-16zm0 0"/><path d="m264 120h-16c-4.414062 0-8-3.585938-8-8 0-22.054688 17.945312-40 40-40h16c4.414062 0 8 3.585938 8 8 0 22.054688-17.945312 40-40 40zm-6.632812-16h6.632812c10.433594 0 19.328125-6.6875 22.632812-16h-6.632812c-10.433594 0-19.328125 6.6875-22.632812 16zm0 0"/><path d="m248 120h-16c-22.054688 0-40-17.945312-40-40 0-4.414062 3.585938-8 8-8h16c22.054688 0 40 17.945312 40 40 0 4.414062-3.585938 8-8 8zm-38.632812-32c3.304687 9.3125 12.199218 16 22.632812 16h6.632812c-3.304687-9.3125-12.199218-16-22.632812-16zm0 0"/></svg>