<svg height="496pt" viewBox="0 0 496.002 496" width="496pt" xmlns="http://www.w3.org/2000/svg"><path d="m104 295.800781c26.511719 0 48-21.488281 48-48 0-26.515625-21.488281-48-48-48zm0 0" fill="#eebc5a"/><path d="m104 202.589844v90.417968c18.632812-6.601562 32-24.320312 32-45.207031 0-20.890625-13.367188-38.617187-32-45.210937zm0 0" fill="#f8cf6a"/><path d="m144 231.800781h152v32h-152zm0 0" fill="#bc8f6f"/><path d="m144 247.800781h152v16h-152zm0 0" fill="#cb9e78"/><path d="m336 47.800781 26.34375-26.347656c3.625-3.621094 8.535156-5.652344 13.65625-5.652344s10.03125 2.03125 13.65625 5.652344l60.6875 60.691406c3.625 3.621094 5.65625 8.535157 5.65625 13.65625 0 5.117188-2.03125 10.03125-5.65625 13.652344l-26.34375 26.347656" fill="#fff"/><path d="m183.996094 167.800781 136.003906-136 167.996094 167.996094-136.003906 136zm0 0" fill="#eebc5a"/><path d="m319.996094 303.804688 136.003906-136.003907 32 32-136.003906 136.003907zm0 0" fill="#f8cf6a"/><path d="m184 167.804688 136-136.003907 32 32-136 136.003907zm0 0" fill="#f8cf6a"/><path d="m136 439.800781h-32c0-17.671875 14.328125-32 32-32h32c0 17.671875-14.328125 32-32 32zm0 0" fill="#5da351"/><path d="m72 407.800781h-32c0 17.671875 14.328125 32 32 32h32c0-17.671875-14.328125-32-32-32zm0 0" fill="#5da351"/><path d="m108.441406 423.800781h27.558594c11.816406 0 22.015625-6.472656 27.558594-16h-27.558594c-11.816406 0-22.015625 6.46875-27.558594 16zm0 0" fill="#74c865"/><path d="m72 407.800781h-27.558594c5.542969 9.527344 15.742188 16 27.558594 16h27.558594c-5.542969-9.53125-15.742188-16-27.558594-16zm0 0" fill="#74c865"/><g fill="#85b6cf"><path d="m360 447.800781c0 24.726563-22.441406 44.214844-48.0625 39.207031-18.992188-3.703124-31.9375-21.578124-31.9375-40.929687 0-9.289063 2.902344-18.34375 8.304688-25.902344l31.695312-44.375 31.695312 44.375c5.402344 7.558594 8.304688 16.613281 8.304688 25.902344zm0 0"/><path d="m280 367.800781c0 24.726563-22.441406 44.214844-48.0625 39.207031-18.992188-3.703124-31.9375-21.578124-31.9375-40.929687 0-9.289063 2.902344-18.34375 8.304688-25.902344l31.695312-44.375 31.695312 44.375c5.402344 7.558594 8.304688 16.613281 8.304688 25.902344zm0 0"/><path d="m8 159.800781c0 24.726563 22.441406 44.214844 48.0625 39.207031 18.992188-3.703124 31.9375-21.578124 31.9375-40.929687 0-9.289063-2.902344-18.34375-8.304688-25.902344l-31.695312-44.375-31.695312 44.375c-5.402344 7.558594-8.304688 16.613281-8.304688 25.902344zm0 0"/><path d="m88 79.800781c0 24.726563 22.441406 44.214844 48.0625 39.207031 18.992188-3.703124 31.9375-21.578124 31.9375-40.929687 0-9.289063-2.902344-18.34375-8.304688-25.902344l-31.695312-44.375-31.695312 44.375c-5.402344 7.558594-8.304688 16.613281-8.304688 25.902344zm0 0"/></g><path d="m308 392.597656-19.695312 27.578125c-5.402344 7.558594-8.304688 16.613281-8.304688 25.902344 0 17.992187 11.265625 34.554687 28.105469 39.792969 16.160156-5.136719 27.894531-20.207032 27.894531-38.070313v-1.722656c0-9.289063-2.902344-18.34375-8.304688-25.902344zm0 0" fill="#94cce7"/><path d="m228 312.597656-19.695312 27.578125c-5.402344 7.558594-8.304688 16.613281-8.304688 25.902344 0 17.992187 11.265625 34.554687 28.105469 39.792969 16.160156-5.136719 27.894531-20.207032 27.894531-38.070313v-1.722656c0-9.289063-2.902344-18.34375-8.304688-25.902344zm0 0" fill="#94cce7"/><path d="m64 158.078125c0-9.289063-2.902344-18.34375-8.304688-25.902344l-19.695312-27.578125-19.695312 27.578125c-5.402344 7.558594-8.304688 16.613281-8.304688 25.902344v1.722656c0 17.863281 11.734375 32.933594 27.894531 38.070313 16.839844-5.238282 28.105469-21.800782 28.105469-39.792969zm0 0" fill="#94cce7"/><path d="m144 78.078125c0-9.289063-2.902344-18.34375-8.304688-25.902344l-19.695312-27.578125-19.695312 27.578125c-5.402344 7.558594-8.304688 16.613281-8.304688 25.902344v1.722656c0 17.863281 11.734375 32.933594 27.894531 38.070313 16.839844-5.238282 28.105469-21.800782 28.105469-39.792969zm0 0" fill="#94cce7"/><path d="m144 255.800781h136v16h-136zm0 0"/><path d="m144 223.800781h104v16h-104zm0 0"/><path d="m104 303.800781c-4.425781 0-8-3.578125-8-8v-96c0-4.425781 3.574219-8 8-8 30.871094 0 56 25.125 56 56 0 30.871094-25.128906 56-56 56zm8-95.195312v78.394531c18.230469-3.722656 32-19.871094 32-39.191406 0-19.320313-13.769531-35.488282-32-39.203125zm0 0"/><path d="m352 343.800781c-2.046875 0-4.097656-.785156-5.65625-2.347656l-168-168c-3.128906-3.125-3.128906-8.183594 0-11.308594l136-136c3.128906-3.128906 8.183594-3.128906 11.3125 0l168 168c3.128906 3.125 3.128906 8.183594 0 11.308594l-136 136c-1.558594 1.5625-3.609375 2.347656-5.65625 2.347656zm-156.6875-176 156.6875 156.6875 124.6875-124.6875-156.6875-156.691406zm0 0"/><path d="m314.339844 298.144531 136-136 11.3125 11.3125-136 136zm0 0"/><path d="m210.339844 194.144531 136-136 11.3125 11.3125-136 136zm0 0"/><path d="m178.34375 226.140625 32-32 11.3125 11.3125-32 32zm0 0"/><path d="m429.65625 141.453125-11.3125-11.308594 26.34375-26.34375c2.136719-2.144531 3.3125-4.976562 3.3125-8 0-3.027343-1.175781-5.859375-3.3125-8l-60.6875-60.691406c-4.28125-4.261719-11.71875-4.261719-16 0l-26.34375 26.34375-11.3125-11.308594 26.34375-26.34375c10.3125-10.3125 28.3125-10.3125 38.625 0l60.6875 60.6875c5.160156 5.160157 8 12.015625 8 19.3125 0 7.292969-2.839844 14.160157-8 19.308594zm0 0"/><path d="m136 447.800781h-32c-4.425781 0-8-3.578125-8-8 0-22.058593 17.945312-40 40-40h32c4.425781 0 8 3.574219 8 8 0 22.054688-17.945312 40-40 40zm-22.632812-16h22.632812c10.433594 0 19.328125-6.691406 22.632812-16h-22.632812c-10.433594 0-19.328125 6.6875-22.632812 16zm0 0"/><path d="m104 447.800781h-32c-22.054688 0-40-17.945312-40-40 0-4.425781 3.574219-8 8-8h32c22.054688 0 40 17.941407 40 40 0 4.421875-3.574219 8-8 8zm-54.632812-32c3.304687 9.308594 12.199218 16 22.632812 16h22.632812c-3.304687-9.3125-12.199218-16-22.632812-16zm0 0"/><path d="m96 439.800781h16v56h-16zm0 0"/><path d="m96 319.800781h16v16h-16zm0 0"/><path d="m96 351.800781h16v16h-16zm0 0"/><path d="m96 383.800781h16v16h-16zm0 0"/><path d="m64 367.800781h16v16h-16zm0 0"/><path d="m64 335.800781h16v16h-16zm0 0"/><path d="m64 303.800781h16v16h-16zm0 0"/><path d="m319.929688 495.789062c-3.167969 0-6.355469-.308593-9.523438-.925781-22.253906-4.34375-38.40625-24.863281-38.40625-48.785156 0-11.023437 3.382812-21.582031 9.792969-30.542969l31.703125-44.382812c3-4.203125 10.015625-4.203125 13.015625 0l31.703125 44.382812c6.410156 8.960938 9.792968 19.519532 9.792968 30.542969v1.722656c0 14.398438-6.382812 27.902344-17.503906 37.070313-8.671875 7.128906-19.449218 10.917968-30.574218 10.917968zm.070312-106.222656-25.191406 35.265625c-4.457032 6.230469-6.808594 13.574219-6.808594 21.246094 0 16.28125 10.710938 30.191406 25.472656 33.082031 9.800782 1.933594 19.335938-.449218 26.847656-6.640625 7.421876-6.113281 11.679688-15.121093 11.679688-24.71875v-1.722656c0-7.671875-2.351562-15.015625-6.808594-21.246094zm0 0"/><path d="m239.929688 415.789062c-3.167969 0-6.355469-.308593-9.523438-.925781-22.253906-4.34375-38.40625-24.863281-38.40625-48.785156 0-11.023437 3.382812-21.582031 9.792969-30.542969l31.703125-44.382812c3-4.203125 10.015625-4.203125 13.015625 0l31.703125 44.382812c6.410156 8.960938 9.792968 19.519532 9.792968 30.542969v1.722656c0 14.398438-6.382812 27.902344-17.503906 37.070313-8.671875 7.128906-19.449218 10.917968-30.574218 10.917968zm.070312-106.222656-25.191406 35.265625c-4.457032 6.230469-6.808594 13.574219-6.808594 21.246094 0 16.28125 10.710938 30.191406 25.472656 33.082031 9.800782 1.941406 19.335938-.449218 26.847656-6.640625 7.421876-6.113281 11.679688-15.121093 11.679688-24.71875v-1.722656c0-7.671875-2.351562-15.015625-6.808594-21.246094zm0 0"/><path d="m48.070312 207.789062c-11.125 0-21.902343-3.789062-30.558593-10.917968-11.128907-9.167969-17.511719-22.671875-17.511719-37.070313v-1.722656c0-11.023437 3.382812-21.582031 9.792969-30.542969l31.703125-44.382812c3-4.203125 10.015625-4.203125 13.015625 0l31.703125 44.382812c6.410156 8.960938 9.792968 19.519532 9.792968 30.542969 0 23.921875-16.152343 44.441406-38.40625 48.785156-3.175781.617188-6.371093.925781-9.53125.925781zm-.070312-106.222656-25.191406 35.265625c-4.457032 6.230469-6.808594 13.574219-6.808594 21.246094v1.722656c0 9.597657 4.257812 18.605469 11.679688 24.71875 7.511718 6.191407 17.054687 8.566407 26.847656 6.640625 14.761718-2.882812 25.472656-16.800781 25.472656-33.082031 0-7.671875-2.351562-15.015625-6.808594-21.246094zm0 0"/><path d="m128.070312 127.789062c-11.125 0-21.902343-3.789062-30.558593-10.917968-11.128907-9.167969-17.511719-22.671875-17.511719-37.070313v-1.722656c0-11.023437 3.382812-21.582031 9.792969-30.542969l31.703125-44.382812c3-4.203125 10.015625-4.203125 13.015625 0l31.703125 44.382812c6.402344 8.960938 9.785156 19.519532 9.785156 30.542969 0 23.921875-16.152344 44.441406-38.40625 48.785156-3.167969.617188-6.363281.925781-9.523438.925781zm-.070312-106.222656-25.191406 35.265625c-4.457032 6.230469-6.808594 13.574219-6.808594 21.246094v1.722656c0 9.597657 4.257812 18.605469 11.679688 24.71875 7.511718 6.191407 17.054687 8.566407 26.847656 6.640625 14.761718-2.882812 25.472656-16.800781 25.472656-33.082031 0-7.671875-2.351562-15.015625-6.808594-21.246094zm0 0"/></svg>